<svg width="0" height="0" class="hidden">
    <symbol id="icon-linear-chart" viewBox="0 0 24 24">
        <g fill="none" stroke="currentColor" stroke-width="1.5">
            <path stroke-linecap="round" d="M22 22H2" />
            <path
                d="M21 22v-7.5a1.5 1.5 0 0 0-1.5-1.5h-3a1.5 1.5 0 0 0-1.5 1.5V22m0 0V5c0-1.414 0-2.121-.44-2.56C14.122 2 13.415 2 12 2s-2.121 0-2.56.44C9 2.878 9 3.585 9 5v17m0 0V9.5A1.5 1.5 0 0 0 7.5 8h-3A1.5 1.5 0 0 0 3 9.5V22" />
        </g>
    </symbol>

    <symbol id="icon-right-caret" viewBox="0 0 24 24">
        <g fill="none" fill-rule="evenodd">
            <path
                d="M24 0v24H0V0zM12.593 23.258l-.011.002l-.071.035l-.02.004l-.014-.004l-.071-.035q-.016-.005-.024.005l-.004.01l-.017.428l.005.02l.01.013l.104.074l.015.004l.012-.004l.104-.074l.012-.016l.004-.017l-.017-.427q-.004-.016-.017-.018m.265-.113l-.013.002l-.185.093l-.01.01l-.003.011l.018.43l.005.012l.008.007l.201.093q.019.005.029-.008l.004-.014l-.034-.614q-.005-.019-.02-.022m-.715.002a.02.02 0 0 0-.027.006l-.006.014l-.034.614q.001.018.017.024l.015-.002l.201-.093l.01-.008l.004-.011l.017-.43l-.003-.012l-.01-.01z" />
            <path fill="currentColor"
                d="M15.707 11.293a1 1 0 0 1 0 1.414l-5.657 5.657a1 1 0 1 1-1.414-1.414l4.95-4.95l-4.95-4.95a1 1 0 0 1 1.414-1.414z" />
        </g>
    </symbol>

    <symbol id="icon-search" viewBox="0 0 24 24">
        <path fill="currentColor"
            d="m18.031 16.617l4.283 4.282l-1.415 1.415l-4.282-4.283A8.96 8.96 0 0 1 11 20c-4.968 0-9-4.032-9-9s4.032-9 9-9s9 4.032 9 9a8.96 8.96 0 0 1-1.969 5.617m-2.006-.742A6.98 6.98 0 0 0 18 11c0-3.867-3.133-7-7-7s-7 3.133-7 7s3.133 7 7 7a6.98 6.98 0 0 0 4.875-1.975z" />
    </symbol>

    <symbol id="up-down-solid" viewBox="0 0 24 24">
        <path fill="currentColor"
            d="M12.53 3.47a.75.75 0 0 0-1.06 0l-4 4a.75.75 0 0 0 0 1.06h9.06a.75.75 0 0 0 0-1.06zm4 13.06a.75.75 0 0 0 0-1.06H7.47a.75.75 0 0 0 0 1.06l4 4a.75.75 0 0 0 1.06 0z" />
    </symbol>
</svg>